<?xml version="1.0" encoding="UTF-8" standalone="no"?>
<svg
   xmlns:dc="http://purl.org/dc/elements/1.1/"
   xmlns:cc="http://creativecommons.org/ns#"
   xmlns:rdf="http://www.w3.org/1999/02/22-rdf-syntax-ns#"
   xmlns:svg="http://www.w3.org/2000/svg"
   xmlns="http://www.w3.org/2000/svg"
   xmlns:sodipodi="http://sodipodi.sourceforge.net/DTD/sodipodi-0.dtd"
   xmlns:inkscape="http://www.inkscape.org/namespaces/inkscape"
   enable-background="new 0 0 141.732 141.732"
   height="140.3"
   id="Livello_1"
   version="1.1"
   viewBox="0 0 139.3 140.3"
   width="139.3"
   xml:space="preserve"
   inkscape:version="0.91 r13725"
   sodipodi:docname="clock.svg"
   inkscape:export-filename="D:\UsersData\vlak\Delphi\hJOPclock\icons\clock.png"
   inkscape:export-xdpi="10.26"
   inkscape:export-ydpi="10.26"><metadata
     id="metadata11"><rdf:RDF><cc:Work
         rdf:about=""><dc:format>image/svg+xml</dc:format><dc:type
           rdf:resource="http://purl.org/dc/dcmitype/StillImage" /><dc:title></dc:title></cc:Work></rdf:RDF></metadata><defs
     id="defs9" /><sodipodi:namedview
     pagecolor="#ffffff"
     bordercolor="#666666"
     borderopacity="1"
     objecttolerance="10"
     gridtolerance="10"
     guidetolerance="10"
     inkscape:pageopacity="0"
     inkscape:pageshadow="2"
     inkscape:window-width="1920"
     inkscape:window-height="1138"
     id="namedview7"
     showgrid="false"
     fit-margin-top="0"
     fit-margin-left="0"
     fit-margin-right="0"
     fit-margin-bottom="0"
     inkscape:zoom="3.33"
     inkscape:cx="38.76"
     inkscape:cy="57.5"
     inkscape:window-x="-8"
     inkscape:window-y="-8"
     inkscape:window-maximized="1"
     inkscape:current-layer="layer2" /><g
     id="Livello_1_1_" /><g
     inkscape:groupmode="layer"
     id="layer1"
     inkscape:label="Layer 1" /><g
     inkscape:groupmode="layer"
     id="layer2"
     inkscape:label="Layer 2"><circle
       style="opacity:1;fill:#ffffff;fill-opacity:1;fill-rule:nonzero;stroke:none;stroke-width:5;stroke-linecap:round;stroke-linejoin:miter;stroke-miterlimit:4;stroke-dasharray:none;stroke-opacity:1"
       id="path3355"
       cx="69.65"
       cy="70.15"
       r="66.37"
       inkscape:export-xdpi="21.7"
       inkscape:export-ydpi="21.7" /><path
       style=""
       inkscape:connector-curvature="0"
       id="path4"
       d="M 113.3,70.19 C 113.3,67.22 110.9,64.81 108,64.81 L 75.54,64.81 75.54,32.39 75.54,32.39 C 75.54,29.41 73.12,26.99 70.15,26.99 67.17,26.99 64.75,29.41 64.75,32.39 L 64.75,70.17 C 64.75,73.15 67.17,75.57 70.15,75.57 L 108,75.57 C 110.9,75.57 113.3,73.16 113.3,70.19 M 129.5,70.16 C 129.5,103 102.9,129.5 70.16,129.5 37.36,129.5 10.78,103 10.78,70.16 10.78,37.36 37.36,10.77 70.16,10.77 102.9,10.77 129.5,37.36 129.5,70.16 M 140.3,70.16 C 140.3,31.41 108.9,0 70.16,0 31.41,0 0,31.41 0,70.16 0,108.9 31.41,140.3 70.16,140.3 108.9,140.3 140.3,108.9 140.3,70.16"
       inkscape:export-xdpi="164.2"
       inkscape:export-ydpi="164.2" /></g></svg>